<svg xmlns="http://www.w3.org/2000/svg" width="256" height="256" viewBox="0 0 256 256" role="img" aria-labelledby="title desc">
  <title id="title">Autopilot logo</title>
  <desc id="desc">A rounded Autopilot compass logo with badges for coding, productivity, browsing, designing, and chatting.</desc>
  <defs>
    <linearGradient id="bg" x1="36" y1="18" x2="224" y2="242" gradientUnits="userSpaceOnUse">
      <stop offset="0" stop-color="#24583f"/>
      <stop offset=".6" stop-color="#1f4d37"/>
      <stop offset="1" stop-color="#173b2b"/>
    </linearGradient>
    <linearGradient id="needle" x1="93" y1="68" x2="162" y2="198" gradientUnits="userSpaceOnUse">
      <stop offset="0" stop-color="#fffaf2"/>
      <stop offset=".58" stop-color="#f2e3cc"/>
      <stop offset="1" stop-color="#d9c3a3"/>
    </linearGradient>
    <linearGradient id="rose-gold" x1="118" y1="98" x2="141" y2="156" gradientUnits="userSpaceOnUse">
      <stop offset="0" stop-color="#f4c46e"/>
      <stop offset=".58" stop-color="#df9b55"/>
      <stop offset="1" stop-color="#c96f42"/>
    </linearGradient>
    <filter id="soft-shadow" x="-25%" y="-25%" width="150%" height="150%">
      <feDropShadow dx="0" dy="10" stdDeviation="9" flood-color="#0b1c14" flood-opacity=".28"/>
    </filter>
    <filter id="badge-shadow" x="-35%" y="-35%" width="170%" height="170%">
      <feDropShadow dx="0" dy="8" stdDeviation="7" flood-color="#0b1c14" flood-opacity=".22"/>
    </filter>
  </defs>

  <rect width="256" height="256" rx="42" fill="url(#bg)"/>
  <path d="M42 70c24-28 55-42 93-42 32 0 59 10 81 29" fill="none" stroke="#fffaf2" stroke-width="2" opacity=".16" stroke-linecap="round"/>
  <circle cx="128" cy="132" r="88" fill="none" stroke="#fffaf2" stroke-width="7" opacity=".2"/>
  <circle cx="128" cy="132" r="68" fill="none" stroke="#fffaf2" stroke-width="5" opacity=".1"/>
  <circle cx="128" cy="132" r="60" fill="#fffaf2" filter="url(#soft-shadow)"/>

  <g filter="url(#soft-shadow)">
    <path d="M128 66 166 199 128 176 90 199Z" fill="url(#needle)" stroke="#143425" stroke-width="8" stroke-linejoin="round"/>
    <path d="M128 66 166 199 128 176Z" fill="#fffaf2" opacity=".94"/>
    <path d="M128 66 128 176 90 199Z" fill="#e4d1b7"/>
    <path d="M128 101 145 154 128 143 111 154Z" fill="url(#rose-gold)"/>
    <path d="M128 101 137 145 128 139Z" fill="#ffd88a" opacity=".72"/>
  </g>

  <g filter="url(#badge-shadow)">
    <circle cx="128" cy="52" r="24" fill="#9a765b"/>
    <path d="M120 44 112 52 120 60" fill="none" stroke="#fffaf2" stroke-width="5" stroke-linecap="round" stroke-linejoin="round"/>
    <path d="M136 44 144 52 136 60" fill="none" stroke="#fffaf2" stroke-width="5" stroke-linecap="round" stroke-linejoin="round"/>
    <path d="M132 42 124 62" fill="none" stroke="#fffaf2" stroke-width="5" stroke-linecap="round"/>

    <circle cx="50" cy="101" r="24" fill="#5a9f6d"/>
    <path d="M37 101 47 111 65 91" fill="none" stroke="#fffaf2" stroke-width="7" stroke-linecap="round" stroke-linejoin="round"/>

    <circle cx="205" cy="101" r="22" fill="#4d8a63"/>
    <circle cx="205" cy="101" r="11" fill="none" stroke="#fffaf2" stroke-width="4"/>
    <path d="M194 101h22M205 90c4 5 4 17 0 22M205 90c-4 5-4 17 0 22" fill="none" stroke="#fffaf2" stroke-width="4" stroke-linecap="round"/>

    <circle cx="78" cy="209" r="24" fill="#b85a86"/>
    <path d="M67 219 72 205 91 186 100 195 81 214Z" fill="none" stroke="#fffaf2" stroke-width="5" stroke-linejoin="round"/>
    <path d="M86 191 95 200" fill="none" stroke="#fffaf2" stroke-width="5" stroke-linecap="round"/>

    <circle cx="178" cy="209" r="24" fill="#c47a38"/>
    <path d="M162 198h32c6 0 10 4 10 10v8c0 6-4 10-10 10h-18l-12 8v-8h-2c-6 0-10-4-10-10v-8c0-6 4-10 10-10Z" fill="none" stroke="#fffaf2" stroke-width="5" stroke-linejoin="round"/>
  </g>
</svg>
